REM DIRINDEX 1\2,1\4,1\3\5,1\3\6,1\3\7
REM DIRNAME cjc083,folder01,folder02,folder03,folder04,folder05,folder06
TITLE ""
FILE "CD1Track09.mp3" MP3
  TRACK 01 AUDIO
    TITLE "0:"
    INDEX 01 00:00:00
  TRACK 02 AUDIO
    TITLE "5:cjc083_0162"
    INDEX 01 00:00:29
  TRACK 03 AUDIO
    TITLE "0:"
    INDEX 01 00:01:34
  TRACK 04 AUDIO
    TITLE "6:cjc083_0163"
    INDEX 01 00:01:73
  TRACK 05 AUDIO
    TITLE "0:"
    INDEX 01 00:03:41
  TRACK 06 AUDIO
    TITLE "5:cjc083_0164"
    INDEX 01 00:04:07
  TRACK 07 AUDIO
    TITLE "0:"
    INDEX 01 00:05:30
  TRACK 08 AUDIO
    TITLE "6:cjc083_0165"
    INDEX 01 00:05:73
  TRACK 09 AUDIO
    TITLE "0:"
    INDEX 01 00:07:19
  TRACK 10 AUDIO
    TITLE "5:cjc083_0166"
    INDEX 01 00:07:58
  TRACK 11 AUDIO
    TITLE "0:"
    INDEX 01 00:09:28
  TRACK 12 AUDIO
    TITLE "6:cjc083_0167"
    INDEX 01 00:09:73
  TRACK 13 AUDIO
    TITLE "0:"
    INDEX 01 00:11:31
  TRACK 14 AUDIO
    TITLE "5:cjc083_0168"
    INDEX 01 00:12:01
  TRACK 15 AUDIO
    TITLE "0:"
    INDEX 01 00:13:04
  TRACK 16 AUDIO
    TITLE "6:cjc083_0169"
    INDEX 01 00:13:49
  TRACK 17 AUDIO
    TITLE "0:"
    INDEX 01 00:15:11
  TRACK 18 AUDIO
    TITLE "5:cjc083_0170"
    INDEX 01 00:15:54
  TRACK 19 AUDIO
    TITLE "0:"
    INDEX 01 00:16:55
  TRACK 20 AUDIO
    TITLE "6:cjc083_0171"
    INDEX 01 00:17:35
  TRACK 21 AUDIO
    TITLE "0:"
    INDEX 01 00:18:48
  TRACK 22 AUDIO
    TITLE "5:cjc083_0172"
    INDEX 01 00:19:18
  TRACK 23 AUDIO
    TITLE "0:"
    INDEX 01 00:20:32
  TRACK 24 AUDIO
    TITLE "6:cjc083_0173"
    INDEX 01 00:21:06
  TRACK 25 AUDIO
    TITLE "0:"
    INDEX 01 00:22:11
  TRACK 26 AUDIO
    TITLE "5:cjc083_0174"
    INDEX 01 00:22:62
  TRACK 27 AUDIO
    TITLE "0:"
    INDEX 01 00:23:73
  TRACK 28 AUDIO
    TITLE "6:cjc083_0175"
    INDEX 01 00:24:43
  TRACK 29 AUDIO
    TITLE "0:"
    INDEX 01 00:26:18
  TRACK 30 AUDIO
    TITLE "5:cjc083_0176"
    INDEX 01 00:26:58
  TRACK 31 AUDIO
    TITLE "0:"
    INDEX 01 00:28:12
  TRACK 32 AUDIO
    TITLE "6:cjc083_0177"
    INDEX 01 00:28:53
  TRACK 33 AUDIO
    TITLE "0:"
    INDEX 01 00:29:56
  TRACK 34 AUDIO
    TITLE "5:cjc083_0178"
    INDEX 01 00:30:22
  TRACK 35 AUDIO
    TITLE "0:"
    INDEX 01 00:31:37
  TRACK 36 AUDIO
    TITLE "6:cjc083_0179"
    INDEX 01 00:32:05
  TRACK 37 AUDIO
    TITLE "0:"
    INDEX 01 00:33:26
  TRACK 38 AUDIO
    TITLE "5:cjc083_0180"
    INDEX 01 00:33:62
  TRACK 39 AUDIO
    TITLE "0:"
    INDEX 01 00:35:27
  TRACK 40 AUDIO
    TITLE "6:cjc083_0181"
    INDEX 01 00:35:68
  TRACK 41 AUDIO
    TITLE "0:"
    INDEX 01 00:37:65
  TRACK 42 AUDIO
    TITLE "5:cjc083_0182"
    INDEX 01 00:38:33
  TRACK 43 AUDIO
    TITLE "0:"
    INDEX 01 00:39:41
  TRACK 44 AUDIO
    TITLE "6:cjc083_0183"
    INDEX 01 00:40:15
  TRACK 45 AUDIO
    TITLE "0:"
    INDEX 01 00:41:22
  TRACK 46 AUDIO
    TITLE "5:cjc083_0184"
    INDEX 01 00:41:63
  TRACK 47 AUDIO
    TITLE "0:"
    INDEX 01 00:42:70
  TRACK 48 AUDIO
    TITLE "6:cjc083_0185"
    INDEX 01 00:43:39
  TRACK 49 AUDIO
    TITLE "0:"
    INDEX 01 00:44:28
  TRACK 50 AUDIO
    TITLE "5:cjc083_0186"
    INDEX 01 00:44:73
  TRACK 51 AUDIO
    TITLE "0:"
    INDEX 01 00:46:13
  TRACK 52 AUDIO
    TITLE "6:cjc083_0187"
    INDEX 01 00:46:56
  TRACK 53 AUDIO
    TITLE "0:"
    INDEX 01 00:47:68
  TRACK 54 AUDIO
    TITLE "5:cjc083_0188"
    INDEX 01 00:48:44
  TRACK 55 AUDIO
    TITLE "0:"
    INDEX 01 00:50:03
  TRACK 56 AUDIO
    TITLE "6:cjc083_0189"
    INDEX 01 00:50:50
  TRACK 57 AUDIO
    TITLE "0:"
    INDEX 01 00:52:20
  TRACK 58 AUDIO
    TITLE "5:cjc083_0190"
    INDEX 01 00:52:63
  TRACK 59 AUDIO
    TITLE "0:"
    INDEX 01 00:54:05
  TRACK 60 AUDIO
    TITLE "6:cjc083_0191"
    INDEX 01 00:54:48
  TRACK 61 AUDIO
    TITLE "0:"
    INDEX 01 00:55:57
  TRACK 62 AUDIO
    TITLE "7:cjc083_0192"
    INDEX 01 00:57:19
  TRACK 63 AUDIO
    TITLE "0:"
    INDEX 01 01:07:53
